<svg id="Capa_1" enable-background="new 0 0 509.429 509.429" height="512" viewBox="0 0 509.429 509.429" width="512" xmlns="http://www.w3.org/2000/svg"><g><g><path d="m76.59 433.062c-81.642-81.641-70.391-177.081-74.467-196.361l48.143 48.143c5.832 5.833 15.323 5.833 21.155.001 5.833-5.833 5.833-15.323 0-21.156l-60.736-60.735c1.916-5.169 9.747-49.767 46.716-95.966l10.47-13.083 102.424 102.424c7.306 7.305 19.191 7.305 26.497 0 7.305-7.305 7.305-19.191 0-26.497l-101.389-101.389c10.687-5.802 38.59-29.354 103.869-47.146l8.397-2.289 58.045 58.045c7.305 7.305 19.191 7.305 26.496 0s7.305-19.191 0-26.496l-41.17-41.17c5.325-.085 118.518-18.719 239.497-3.248l11.548 1.477 1.436 11.553c.511 4.111 5.291 94.85-7.58 200.824l-.886 27.752-40.104-40.105c-7.305-7.305-22.02-4.477-29.325 2.829-7.305 7.305-10.133 22.019-2.827 29.324l56.931 56.931.54 5.568c-14.638 53.721-29.686 74.495-43.017 100.928l-100.87-100.867c-7.305-7.305-19.191-7.305-26.496 0s-14.376 26.263-7.071 33.567l102.557 102.556c-12.83 8.506-32.287 32.358-92.67 48.756l-8.39 2.278-56.362-56.362c-5.833-5.833-15.323-5.833-21.155 0-5.833 5.832-12.196 21.686-6.364 27.519l43.739 43.739-37.751-6.053c-59.223-4.707-107.873-23.334-149.83-65.291z" fill="#ade993"/><path d="m16.675 504.48 65.987-66.013c.002.002.004.004.007.006l421.671-411.936c-.683-6.611-.954-8.413-2.255-18.92-11.009-1.402-12.66-1.654-18.925-2.326l-5.128 5.13-.007-.006-411.633 411.794-65.985 66.011c1.696 1.695-6.078-6.075 16.268 16.26z" fill="#76d081"/><path d="m274.071 508.649-43.739-43.739c-5.833-5.833-5.833-15.323 0-21.156 5.833-5.832 15.323-5.832 21.155.001l56.362 56.362 8.39-2.278c60.631-16.465 92.108-50.497 99.74-55.827l-102.556-102.556c-7.305-7.305-7.305-19.191.001-26.496 7.305-7.305 19.19-7.305 26.495 0l100.868 100.868 9.94-16.232c26.885-43.905 37.202-91.499 38.9-96.627l-56.931-56.931c-7.306-7.305-7.306-19.191-.001-26.496 7.306-7.305 19.191-7.305 26.497 0l40.105 40.104c1.077-15.338 19.403-113.383 2.808-249.867l-425.398 425.397c81.998 81.892 177.894 71.266 197.364 75.473z" fill="#76d081"/><path d="m87.612 443.416c.002.002.004.004.007.006l416.721-416.885c-.676-6.546-.958-8.436-2.255-18.92l-491.048 491.229 10.588 10.583z" fill="#56975d"/></g></g></svg>