<svg height="512" viewBox="0 0 64 64" width="512" xmlns="http://www.w3.org/2000/svg" xmlns:xlink="http://www.w3.org/1999/xlink"><linearGradient id="New_Gradient_Swatch_3" gradientUnits="userSpaceOnUse" x1="32" x2="32" y1="63.831" y2="-3.791"><stop offset="0" stop-color="#12a33a"/><stop offset="1" stop-color="#01805c"/></linearGradient><g id="Location" fill="url(#New_Gradient_Swatch_3)"><path d="m32 32a9 9 0 1 1 9-9 9.011 9.011 0 0 1 -9 9zm0-16a7 7 0 1 0 7 7 7.008 7.008 0 0 0 -7-7z"/><path d="m61.874 60.514-10-18a1 1 0 0 0 -.874-.514h-7.589c4.889-6.1 9.589-13.425 9.589-19a21 21 0 0 0 -42 0c0 5.575 4.705 12.9 9.589 19h-7.589a1 1 0 0 0 -.874.514l-10 18a1 1 0 0 0 .874 1.486h58a1 1 0 0 0 .874-1.486zm-29.874-56.514a19.021 19.021 0 0 1 19 19c0 9.359-15.516 25.172-19 28.6-3.486-3.429-19-19.237-19-28.6a19.021 19.021 0 0 1 19-19zm-12.8 52 1.366-3h5.439l-1.064 3zm-7.7 0 1.665-3h5.207l-1.365 3zm15.719-6.412-.502 1.412h-5.238l1.365-3h2.9c.512.562 1.006 1.093 1.474 1.588zm-7.938 1.412h-5.007l1.665-3h4.708zm9.487.2c1.411 1.443 2.374 2.363 2.544 2.525a1 1 0 0 0 1.376 0c.17-.162 1.132-1.081 2.542-2.523l1.7 4.8h-9.864zm10.288 4.8-1.065-3h5.44l1.369 3zm7.938 0-1.365-3h5.207l1.664 3zm-2.275-5-1.366-3h4.708l1.665 3zm-3.563-3 1.365 3h-5.24l-.5-1.41c.468-.5.963-1.028 1.478-1.59zm-36.456 12 8.888-16h8.642c.58.691 1.155 1.359 1.718 2h-8.6a1 1 0 0 0 -.874.515l-5.551 10a1 1 0 0 0 .877 1.485h44.4a1 1 0 0 0 .875-1.485l-5.551-10a1 1 0 0 0 -.874-.515h-8.6c.563-.641 1.138-1.309 1.718-2h8.642l8.89 16z"/></g></svg>