<svg height="512" viewBox="0 0 64 64" width="512" xmlns="http://www.w3.org/2000/svg" xmlns:xlink="http://www.w3.org/1999/xlink"><linearGradient id="New_Gradient_Swatch_3" gradientUnits="userSpaceOnUse" x1="31.346" x2="31.346" y1="65.03" y2="-1.7"><stop offset="0" stop-color="#12a33a"/><stop offset="1" stop-color="#01805c"/></linearGradient><linearGradient id="New_Gradient_Swatch_3-2" x1="46" x2="46" xlink:href="#New_Gradient_Swatch_3" y1="65.03" y2="-1.7"/><linearGradient id="New_Gradient_Swatch_3-3" x1="38" x2="38" xlink:href="#New_Gradient_Swatch_3" y1="65.03" y2="-1.7"/><linearGradient id="New_Gradient_Swatch_3-5" x1="54" x2="54" xlink:href="#New_Gradient_Swatch_3" y1="65.03" y2="-1.7"/><g id="Talk_on_phone" data-name="Talk on phone"><path d="m51.071 38.384a3.005 3.005 0 0 0 -4.243 0l-5.656 5.657a5.006 5.006 0 0 1 -7.071 0l-14.143-14.141a5.006 5.006 0 0 1 0-7.071l5.657-5.656a3 3 0 0 0 0-4.243l-8.485-8.486a3.072 3.072 0 0 0 -4.242 0l-5.658 5.656a17.021 17.021 0 0 0 0 24.041l22.628 22.629a17 17 0 0 0 24.041 0l5.659-5.658a3 3 0 0 0 0-4.242zm-36.771-32.527a1.023 1.023 0 0 1 1.413 0l8.487 8.487a1 1 0 0 1 0 1.413l-3.536 3.536-9.9-9.9zm38.182 49.5a15 15 0 0 1 -21.213 0l-22.624-22.629a15.018 15.018 0 0 1 0-21.213l.707-.707 9.9 9.9-.707.707a7.006 7.006 0 0 0 0 9.9l14.142 14.141a7.008 7.008 0 0 0 9.9 0l.707-.707 9.9 9.9zm5.661-5.657-3.537 3.535-9.9-9.9 3.536-3.535a1 1 0 0 1 1.415 0l8.485 8.485a1 1 0 0 1 .001 1.415z" fill="url(#New_Gradient_Swatch_3)"/><path d="m57 2h-22a5.006 5.006 0 0 0 -5 5v16a5.006 5.006 0 0 0 5 5h1v8a1 1 0 0 0 1.747.665l7.702-8.665h11.551a5.006 5.006 0 0 0 5-5v-16a5.006 5.006 0 0 0 -5-5zm3 21a3 3 0 0 1 -3 3h-12a1 1 0 0 0 -.747.335l-6.253 7.035v-6.37a1 1 0 0 0 -1-1h-2a3 3 0 0 1 -3-3v-16a3 3 0 0 1 3-3h22a3 3 0 0 1 3 3z" fill="url(#New_Gradient_Swatch_3-2)"/><path d="m38 12a3 3 0 1 0 3 3 3 3 0 0 0 -3-3zm0 4a1 1 0 1 1 1-1 1 1 0 0 1 -1 1z" fill="url(#New_Gradient_Swatch_3-3)"/><path d="m46 12a3 3 0 1 0 3 3 3 3 0 0 0 -3-3zm0 4a1 1 0 1 1 1-1 1 1 0 0 1 -1 1z" fill="url(#New_Gradient_Swatch_3-2)"/><path d="m54 12a3 3 0 1 0 3 3 3 3 0 0 0 -3-3zm0 4a1 1 0 1 1 1-1 1 1 0 0 1 -1 1z" fill="url(#New_Gradient_Swatch_3-5)"/></g></svg>